<?xml version="1.0" encoding="UTF-8"?> <svg xmlns="http://www.w3.org/2000/svg" xmlns:xlink="http://www.w3.org/1999/xlink" width="279px" height="279px" viewBox="0 0 279 279" version="1.1"><title>Artboard</title><defs><polygon id="path-1" points="-2.84768711e-16 0 14.3040066 0 14.3040066 22.5743081 -2.84768711e-16 22.5743081"></polygon></defs><g id="Artboard" stroke="none" stroke-width="1" fill="none" fill-rule="evenodd"><rect fill="#A4CAFF" x="0" y="0" width="279" height="279"></rect><g id="SW_logo_blue" transform="translate(15.000000, 117.000000)"><path d="M73,27.4142857 C73,30.9629581 70.9751417,33 66.9917141,33 L57.464529,33 L57.464529,28.7941848 L65.8627701,28.7941848 C67.0911468,28.7941848 67.6887628,28.3671933 67.6887628,27.283059 C67.6887628,26.3957648 67.0248583,25.8370419 65.5644717,24.818521 L60.5851871,21.0073952 C58.0621455,19.10158 57,17.3269914 57,15.2243362 C57,11.6428571 59.1242911,10 63.3070942,10 L72.601759,10 L72.601759,14.2058152 L64.2366627,14.2058152 C62.9419974,14.2058152 62.3112372,14.6328067 62.3112372,15.7502523 C62.3112372,16.6042352 62.9751417,17.1629581 64.4686725,18.1486724 L69.4148129,21.5656133 C71.9378545,23.2745886 73,25.3444371 73,27.4142857" id="Fill-1" fill="#29296E" fill-rule="nonzero"></path><polygon id="Fill-3" fill="#29296E" fill-rule="nonzero" points="92 14.2058152 86.1153845 14.2058152 86.1153845 33 80.8846155 33 80.8846155 14.2058152 75 14.2058152 75 10 92 10"></polygon><path d="M106.661165,28.5644407 L97.3388348,28.5644407 L95.751936,33 L90,33 L99.2233085,10 L104.776691,10 L114,33 L108.248064,33 L106.661165,28.5644407 Z M105.272819,24.7199192 L102.033007,15.6186442 L98.7601878,24.7199192 L105.272819,24.7199192 Z" id="Fill-4" fill="#29296E" fill-rule="nonzero"></path><path d="M133,33 L127.776706,33 L126.771019,28.5973448 C126.122157,25.5417819 125.538081,24.7201009 123.267061,24.6872943 L121.1909,24.6872943 L121.1909,33 L116,33 L116,10 L125.310829,10 C130.144905,10 132.351137,12.1687733 132.351137,16.9 C132.351137,20.0872943 131.118199,22.0259162 128.620427,22.8142857 C130.40455,23.6687733 131.280664,25.3772438 131.994313,28.5973448 L133,33 Z M123.461919,20.8428571 C126.317014,20.8428571 127.160237,19.8243362 127.160237,17.3931095 C127.160237,14.9613781 126.317014,13.9428571 123.461919,13.9428571 L121.1909,13.9428571 L121.1909,20.8428571 L123.461919,20.8428571 Z" id="Fill-5" fill="#29296E" fill-rule="nonzero"></path><path d="M137,33 L142.128256,33 L142.128256,10 L137,10 L137,33 Z M142.128256,21.1386219 L150.301167,10.0005047 L156.422973,10.0005047 L147.833046,21.1386219 L157,33 L150.878194,33 L142.128256,21.1386219 Z" id="Fill-7" fill="#29296E" fill-rule="nonzero"></path><polygon id="Fill-8" fill="#29296E" fill-rule="nonzero" points="190 10 183.125531 33 179.913071 33 174.483962 14.6 169.054855 33 165.810318 33 159 10 162.148311 10 167.512775 29.418521 173.198978 10 175.768946 10 181.455151 29.418521 186.851689 10"></polygon><path d="M205.549555,27.0201009 L195.449953,27.0201009 L193.238157,33 L190,33 L198.9447,10 L202.054808,10 L211,33 L207.761843,33 L205.549555,27.0201009 Z M204.747772,24.818521 L200.51576,13.2857143 L196.251736,24.818521 L204.747772,24.818521 Z" id="Fill-9" fill="#29296E" fill-rule="nonzero"></path><g id="Group-17"><path d="M229.013601,33.7271131 L226.010815,33.7271131 L225.203326,29.8571468 C224.396333,25.8261796 223.395405,24.4712951 220.359882,24.4068947 L216.420647,24.4068947 L216.420647,33.7271131 L213.450101,33.7271131 L213.450101,11.1523096 L221.458027,11.1523096 C226.204751,11.1523096 228.303329,13.2487891 228.303329,17.5378531 C228.303329,20.7628251 226.979503,22.7300084 224.202397,23.3750028 C226.398191,24.2136936 227.39912,26.1159812 228.173872,29.8571468 L229.013601,33.7271131 Z M220.457098,22.2138147 C224.008957,22.2138147 225.332782,20.8272254 225.332782,17.79595 C225.332782,14.8285795 224.008957,13.40979 220.457098,13.40979 L216.420647,13.40979 L216.420647,22.2138147 L220.457098,22.2138147 Z" id="Fill-10" fill="#29296E" fill-rule="nonzero"></path><g id="Fill-12-Clipped" transform="translate(233.695993, 11.152558)"><mask id="mask-2" fill="white"><use xlink:href="#path-1"></use></mask><g id="path-1"></g><path d="M2.97054638,2.38628107 L2.97054638,9.25532265 L12.9803304,9.25532265 L12.9803304,11.4806028 L2.97054638,11.4806028 L2.97054638,16.3180607 C2.97054638,18.9951342 4.13267531,20.188027 6.78082141,20.188027 L14.3041554,20.188027 L14.3041554,22.5743081 L6.32846906,22.5743081 C1.61448129,22.5743081 -2.84768711e-16,21.0267179 -2.84768711e-16,16.5761575 L-2.84768711e-16,0 L14.3041554,0 L14.3041554,2.38628107 L2.97054638,2.38628107 Z" id="Fill-12" fill="#29296E" fill-rule="nonzero" mask="url(#mask-2)"></path></g><path d="M44.8838199,22.0856085 L35.3745003,12.5880414 C35.0530921,12.2670303 34.5918117,12.1709252 34.1870754,12.3002213 L27.9335024,13.9751261 C27.9330064,13.9746307 27.9325104,13.9741353 27.9315184,13.9741353 C27.9255664,13.9761168 27.9191184,13.9771076 27.9126704,13.9771076 C27.8779503,13.9771076 27.8501743,13.9493659 27.8501743,13.9146888 C27.8501743,13.8923964 27.8615823,13.8730763 27.8789423,13.8616824 C27.8789423,13.8616824 27.8784463,13.8616824 27.8784463,13.8616824 C28.5609429,13.4084029 29.5960957,12.5880414 32.0701457,10.1165537 C32.2992979,9.88768465 32.2992979,9.5166395 32.0701457,9.28777055 L22.9427463,0.171651732 C22.7135942,-0.0572172439 22.3420899,-0.0572172439 22.1129377,0.171651732 L12.6031221,9.66921885 C12.2822098,9.99022985 12.1859858,10.4509402 12.3154419,10.8551763 L13.9919232,17.1010205 C13.9919232,17.1015159 13.9909312,17.1015159 13.9914272,17.1030021 C13.9934112,17.1089467 13.9944032,17.1153868 13.9944032,17.1218268 C13.9944032,17.1560085 13.9661312,17.1842456 13.9314111,17.1842456 C13.9095871,17.1842456 13.8897471,17.1728517 13.8788351,17.1555131 C13.8788351,17.1555131 13.8788351,17.1560085 13.8788351,17.1560085 C13.4249947,16.4743555 12.6031221,15.440482 10.1290721,12.9694897 L10.1290721,12.9694897 L10.1290721,12.9694897 C9.89991992,12.7406207 9.52841562,12.7406207 9.29926342,12.9694897 L0.171864137,22.0856085 C-0.0572880457,22.3144774 -0.0572880457,22.6855226 0.171864137,22.9143916 L9.68118377,32.4119587 C10.002592,32.7329697 10.4633764,32.8290749 10.8686087,32.6997788 L17.1216857,31.024874 C17.1226777,31.0253694 17.1226777,31.0258648 17.1241657,31.0258648 C17.1301177,31.0238832 17.1360697,31.0228924 17.1425177,31.0228924 C17.1772377,31.0228924 17.2055098,31.0506341 17.2055098,31.0853112 C17.2055098,31.1076037 17.1941018,31.1269238 17.1767417,31.1383177 C17.1767417,31.1383177 17.1772377,31.1383177 17.1772377,31.1383177 C16.4947412,31.5915972 15.4595884,32.4119587 12.9850424,34.8834464 C12.7558902,35.1123154 12.7558902,35.4833605 12.9850424,35.7122295 L22.1129377,44.8283483 C22.3420899,45.0572172 22.7135942,45.0572172 22.9427463,44.8283483 L32.452066,35.3307812 C32.7734742,35.0097702 32.8692023,34.5490599 32.7402422,34.1448238 L31.0632649,27.8989795 C31.0632649,27.8984841 31.0642569,27.8984841 31.0637609,27.896998 C31.0622729,27.8910533 31.0612809,27.8846133 31.0612809,27.8781733 C31.0612809,27.8434961 31.0890569,27.8157544 31.1237769,27.8157544 C31.1460969,27.8157544 31.165441,27.8271484 31.176849,27.8444869 C31.176849,27.8444869 31.176849,27.8439915 31.176849,27.8439915 C31.6306893,28.5256446 32.452066,29.5595181 34.926612,32.0305104 L34.926612,32.0305104 C35.1557641,32.2593794 35.5272684,32.2593794 35.7564206,32.0305104 L44.8838199,22.9143916 C45.1129721,22.6855226 45.1129721,22.3144774 44.8838199,22.0856085 M22.494858,25.3853839 L18.5134628,29.3618585 C18.5109828,29.3643354 18.5085028,29.3668124 18.5055268,29.3687939 C18.4956068,29.3747386 18.4841988,29.3787017 18.4717988,29.3787017 C18.4370787,29.3787017 18.4088067,29.3504646 18.4088067,29.3157875 C18.4088067,29.308852 18.4097987,29.3019166 18.4122787,29.295972 C18.4122787,29.2954766 18.4117827,29.2964674 18.4117827,29.295972 L19.9265679,23.6530142 C20.056024,23.2482827 19.9598,22.7880678 19.6383917,22.4670568 L15.6569965,18.4905822 C15.6550125,18.4881052 15.6525325,18.4856283 15.6505485,18.482656 C15.6445965,18.4727482 15.6406285,18.4613543 15.6406285,18.4489696 C15.6406285,18.4142925 15.6689005,18.3860554 15.7036206,18.3860554 C15.7105646,18.3860554 15.7175086,18.3875416 15.7234606,18.3895231 C15.7239566,18.3895231 15.7229646,18.3890277 15.7229646,18.3890277 L21.3734011,19.9019408 C21.7781374,20.031237 22.2394178,19.9351318 22.560826,19.6146162 L26.5422213,15.6381416 C26.5447013,15.6356646 26.5471813,15.6331877 26.5501573,15.6312061 C26.5595813,15.6252615 26.5714853,15.6212984 26.5838853,15.6212984 C26.6186053,15.6212984 26.6463813,15.6495355 26.6463813,15.6842126 C26.6463813,15.691148 26.6453893,15.6980834 26.6434053,15.7040281 C26.6434053,15.7045235 26.6434053,15.7035327 26.6434053,15.7040281 L25.1286201,21.3469859 C24.99966,21.751222 25.0958841,22.2119323 25.4167964,22.5329433 L29.3981915,26.5094179 C29.4006715,26.5118948 29.4031516,26.5143718 29.4046396,26.5173441 C29.4110876,26.5272518 29.4145596,26.5386457 29.4145596,26.5510304 C29.4145596,26.5857075 29.3867835,26.6139446 29.3520635,26.6139446 C29.3451195,26.6139446 29.3381755,26.6124585 29.3317275,26.6104769 C29.3317275,26.6104769 29.3322235,26.6109723 29.3322235,26.6109723 L23.6822829,25.0975638 C23.2770506,24.9687631 22.8162662,25.0648683 22.494858,25.3853839" id="Fill-15" fill="#29296E" fill-rule="nonzero"></path></g></g></g></svg> 